<?xml version='1.0' encoding='utf-8'?>
<svg xmlns="http://www.w3.org/2000/svg" width="100%" height="100%" viewBox="0 0 1439 1439" version="1.1" style="fill-rule:evenodd;clip-rule:evenodd;stroke-linejoin:round;stroke-miterlimit:2;"> <g transform="matrix(1,0,0,1,-1181.46,-597.141)"> <g transform="matrix(4.16667,0,0,4.16667,0,0)"> <g transform="matrix(0.24,0,0,0.24,-10.6829,19.3598)"> <rect x="1225.97" y="516.475" width="1438.05" height="1438.05" style="fill:white;"/> </g> </g> <g transform="matrix(4.16667,0,0,4.16667,0,0)"> <g transform="matrix(1,0,0,1,530.368,216.269)"> <path d="M0,20.605C1.497,18.126 2.433,15.491 2.688,12.714C4.375,-5.598 -23.169,-23.352 -60.285,-28.905C-60.144,-29.343 -60.034,-29.792 -59.99,-30.263C-59.606,-34.434 -63.4,-38.192 -68.465,-38.659C-73.529,-39.125 -77.946,-36.123 -78.33,-31.952C-78.374,-31.482 -78.347,-31.02 -78.289,-30.563C-115.794,-31.884 -146.119,-19.46 -147.805,-1.148C-148.061,1.628 -147.623,4.391 -146.603,7.101C-153.06,8.432 -160.997,10.885 -161.915,15.595C-164.242,27.548 -120.904,51.846 -76.74,55.806C-32.99,59.73 13.611,43.88 13.502,31.753C13.458,26.908 5.962,23.032 0,20.605" style="fill:rgb(233,78,27);fill-rule:nonzero;"/> </g> </g> <g transform="matrix(4.16667,0,0,4.16667,0,0)"> <g transform="matrix(-0.999245,-0.0388493,-0.0388493,0.999245,449.805,321.384)"> <path d="M-5.143,-41.106C16.981,-40.192 39.561,-44.334 56.533,-50.223C51.143,-26.231 26.141,12.662 -5.143,11.121C-35.111,9.646 -55.588,-28.18 -60.061,-52.873C-44.452,-46.73 -24.78,-41.916 -5.143,-41.106" style="fill:rgb(218,218,218);fill-rule:nonzero;"/> </g> </g> <g transform="matrix(4.16667,0,0,4.16667,0,0)"> <g transform="matrix(-0.558147,0.829742,0.829742,0.558147,525.28,196.748)"> <path d="M31.078,-54.626C28.734,-55.185 6.303,-0.435 21.418,11.461C24.168,13.624 28.573,14.694 31.078,13.034C36.665,9.331 28.846,-5.334 28.79,-30.401C28.754,-46.543 31.965,-54.413 31.078,-54.626" style="fill:rgb(188,58,24);fill-rule:nonzero;"/> </g> </g> <g transform="matrix(4.16667,0,0,4.16667,0,0)"> <g transform="matrix(-0.0183509,0.999832,0.999832,0.0183509,465.777,233.867)"> <path d="M42.295,-62.858C46.679,-52.46 52.833,-34.189 52.812,-10.721C52.789,12.617 46.67,30.789 42.295,41.169C46.216,36.79 62.147,18.002 62.184,-10.747C62.221,-39.62 46.197,-58.5 42.295,-62.858" style="fill:rgb(198,198,198);fill-rule:nonzero;"/> </g> </g> <g transform="matrix(4.16667,0,0,4.16667,0,0)"> <g transform="matrix(-0.158199,0.987407,0.987407,0.158199,469.109,193.369)"> <path d="M60.787,-79.617C62.066,-79.905 75.081,-49.585 74.25,-10.708C73.507,24.095 61.976,51.371 60.787,51.098C59.683,50.845 67.836,26.917 68.64,-8.65C69.591,-50.78 59.554,-79.34 60.787,-79.617" style="fill:rgb(188,58,24);fill-rule:nonzero;"/> </g> </g> <g transform="matrix(4.16667,0,0,4.16667,0,0)"> <g transform="matrix(1,0,0,1,364.75,451.265)"> <path d="M0,-47.098C28.093,-31.399 56.187,-15.7 84.28,0C84.264,-6.537 84.246,-13.074 84.229,-19.61C56.153,-28.772 28.076,-37.935 0,-47.098" style="fill:rgb(15,137,128);fill-rule:nonzero;"/> </g> </g> <g transform="matrix(4.16667,0,0,4.16667,0,0)"> <g transform="matrix(1,0,0,1,457.015,419.471)"> <path d="M0,4.838C-0.018,9.443 -0.035,14.05 -0.053,18.655C28.041,7.831 56.133,-2.993 84.227,-13.817C56.152,-7.6 28.076,-1.381 0,4.838" style="fill:rgb(15,137,128);fill-rule:nonzero;"/> </g> </g> <g transform="matrix(4.16667,0,0,4.16667,0,0)"> <g transform="matrix(1,0,0,1,352.975,397.227)"> <path d="M0,-85.892L0,-49.919C29.126,-33.28 58.252,-16.64 87.378,0C58.252,-28.631 29.126,-57.261 0,-85.892" style="fill:rgb(8,161,154);fill-rule:nonzero;"/> </g> </g> <g transform="matrix(4.16667,0,0,4.16667,0,0)"> <g transform="matrix(-0.0831289,0.996539,0.996539,0.0831289,535.053,380.456)"> <path d="M-31.248,-20.896C-13.41,-35.66 4.428,-50.423 22.265,-65.186C4.428,-38.194 -13.409,-11.2 -31.248,15.794L-28.208,-20.643L-31.248,-20.896Z" style="fill:rgb(8,161,154);fill-rule:nonzero;"/> </g> </g> <g transform="matrix(4.16667,0,0,4.16667,0,0)"> <g transform="matrix(1,0,0,1,503.279,376.684)"> <path d="M0,-65.722C-11.345,-48.014 -27.977,-33.06 -47.86,-32.855C-68.123,-32.646 -85.361,-47.825 -97.083,-65.722L-136.546,-65.722C-107.378,-43.814 -78.209,-21.908 -49.04,0C-28.178,-15.061 -7.315,-30.122 13.547,-45.183L13.547,-65.722L0,-65.722Z" style="fill:rgb(8,161,154);fill-rule:nonzero;"/> </g> </g> <g transform="matrix(4.16667,0,0,4.16667,0,0)"> <g transform="matrix(1,0,0,1,0,-90.989)"> <path d="M525.662,432.783L563.232,432.783L563.232,395.212L525.662,395.212L525.662,432.783ZM568.285,437.836L520.61,437.836L520.61,390.161L568.285,390.161L568.285,437.836Z" style="fill:rgb(233,78,27);fill-rule:nonzero;"/> </g> </g> <g transform="matrix(4.16667,0,0,4.16667,0,0)"> <g transform="matrix(1,0,0,1,547.743,312.156)"> <path d="M0,22.883C0,22.996 -0.04,23.089 -0.118,23.169C-0.197,23.249 -0.293,23.288 -0.406,23.288L-5.211,23.288C-5.325,23.288 -5.42,23.249 -5.499,23.169C-5.578,23.089 -5.617,22.996 -5.617,22.883L-5.617,4.978C-5.617,4.933 -5.641,4.889 -5.685,4.842C-5.731,4.798 -5.775,4.787 -5.821,4.809L-9.137,5.586L-9.273,5.622C-9.477,5.622 -9.578,5.498 -9.578,5.247L-9.646,1.695C-9.646,1.468 -9.544,1.311 -9.341,1.22L-5.854,-0.303C-5.674,-0.368 -5.506,-0.405 -5.348,-0.405L-0.406,-0.405C-0.293,-0.405 -0.197,-0.363 -0.118,-0.286C-0.04,-0.206 0,-0.11 0,0.003L0,22.883Z" style="fill:rgb(233,78,27);fill-rule:nonzero;"/> </g> </g> <g transform="matrix(4.16667,0,0,4.16667,0,0)"> <g transform="matrix(-0.135578,0.990767,0.990767,0.135578,494.688,285.589)"> <path d="M42.487,-123.333C67.062,-90.823 91.635,-58.314 116.209,-25.803C91.635,-7.815 67.061,10.172 42.487,28.158C60.238,9.531 77.988,-9.096 95.739,-27.725C77.988,-59.595 60.239,-91.464 42.487,-123.333" style="fill:rgb(15,137,128);fill-rule:nonzero;"/> </g> </g> <g transform="matrix(4.16667,0,0,4.16667,0,0)"> <g transform="matrix(1,0,0,1,553.389,397.226)"> <path d="M0,-46.597L0,0L-85.147,0C-56.766,-15.533 -28.383,-31.064 0,-46.597" style="fill:rgb(15,137,128);fill-rule:nonzero;"/> </g> </g> <g transform="matrix(4.16667,0,0,4.16667,0,0)"> <g transform="matrix(1,0,0,1,352.975,397.226)"> <path d="M0,-49.919L0,-1.115C29.126,-0.744 58.252,-0.372 87.378,0C58.252,-16.64 29.126,-33.279 0,-49.919" style="fill:rgb(15,137,128);fill-rule:nonzero;"/> </g> </g> <g transform="matrix(4.16667,0,0,4.16667,0,0)"> <g transform="matrix(1,0,0,1,364.75,431.407)"> <path d="M0,-27.24C28.052,-27.323 56.104,-27.405 84.156,-27.488C84.181,-18.243 84.205,-8.997 84.229,0.248C56.153,-8.914 28.076,-18.077 0,-27.24" style="fill:rgb(8,161,154);fill-rule:nonzero;"/> </g> </g> <g transform="matrix(4.16667,0,0,4.16667,0,0)"> <g transform="matrix(1,0,0,1,457.086,424.185)"> <path d="M0,-18.407C28.052,-18.449 56.104,-18.49 84.156,-18.531C56.081,-12.313 28.005,-6.094 -0.071,0.124C-0.047,-6.053 -0.024,-12.23 0,-18.407" style="fill:rgb(8,161,154);fill-rule:nonzero;"/> </g> </g> </g> </svg>